# generated from PmQm by Jehee Lee
:FULLY-SPECIFIED
:DEGREES
390
root 0.8307 39.1992 -33.3376 179.329 -47.4069 179.776
RightUpLeg 9.66407 -4.71937 -4.21372
RightLeg 11.0142 -30.1657 -5.23394
RightFoot -9.99567 -0.259034 16.1394
RightToes -0.000541893 -0.000659172 -0.000493268
Spine -0.0275668 2.35405 0.901223
Spine1 -0.0476224 4.65854 2.34687
HEad 23.1327 22.0746 -11.5459
LeftShoulder1 -3.88251e-019 -0 -3.92111e-022
LeftArm -41.3571 22.3187 -84.8498
LeftForeArm 19.338 2.22315 2.5893
LeftHand -0.717254 -3.81816 9.29999
RightShoulder 7.45443e-017 -2.42657e-020 1.96277e-018
RightArm -26.4852 -18.4983 66.7629
RightForeArm 24.3453 4.18725 6.19714
RightHand -1.62523 10.6639 -12.0848
LeftUpLeg -11.4787 1.64407 1.93188
LeftLeg 0.494605 23.0902 1.11965
LeftFoot 10.1184 -0.85488 4.18286
LeftToes 3.91355e-005 3.11907e-005 -4.10385e-006
391
root -0.593097 39.2086 -33.3231 179.586 -50.4767 178.753
RightUpLeg 11.5044 -8.14083 -7.91768
RightLeg 13.3207 -27.0077 -5.5975
RightFoot -7.76066 -0.749629 21.8521
RightToes -0.000541893 -0.000659172 -0.000493268
Spine -0.0812353 2.48865 0.954047
Spine1 -0.15338 4.90336 2.41151
HEad 23.6415 20.3291 -11.6841
LeftShoulder1 -3.88251e-019 -0 -3.92111e-022
LeftArm -41.786 22.0302 -85.7803
LeftForeArm 20.6235 2.20071 2.5534
LeftHand -0.6243 -3.57162 8.33762
RightShoulder 7.45443e-017 -2.42657e-020 1.96277e-018
RightArm -26.9984 -20.1271 65.5931
RightForeArm 25.3529 3.67204 5.70491
RightHand -1.56553 10.6034 -11.701
LeftUpLeg -10.5726 0.180498 -0.595728
LeftLeg 2.68715 21.612 1.54186
LeftFoot 7.74019 -0.780106 4.36558
LeftToes 3.91355e-005 3.11907e-005 -4.10385e-006
392
root -2.04752 39.2224 -33.2533 -179.93 -53.4469 177.515
RightUpLeg 12.2137 -12.2198 -11.8445
RightLeg 17.5952 -21.9823 -7.13816
RightFoot -4.35015 -1.65891 26.0044
RightToes -0.000541893 -0.000659172 -0.000493268
Spine -0.181888 2.77233 0.818183
Spine1 -0.374808 5.4153 2.36529
HEad 25.0749 18.8106 -11.5461
LeftShoulder1 -3.88251e-019 -0 -3.92111e-022
LeftArm -41.5843 21.7982 -86.0514
LeftForeArm 22.1885 2.17526 2.51916
LeftHand -0.507603 -3.64475 6.78661
RightShoulder 7.45443e-017 -2.42657e-020 1.96277e-018
RightArm -27.9919 -22.171 65.2331
RightForeArm 25.1365 3.42926 4.69609
RightHand -1.55919 10.3629 -11.8244
LeftUpLeg -9.13821 -1.12596 -3.14714
LeftLeg 4.43515 20.1524 1.59692
LeftFoot 4.33883 -0.763327 5.35276
LeftToes 3.91355e-005 3.11907e-005 -4.10385e-006
393
root -3.37068 39.1481 -33.1147 -179.939 -56.4486 176.905
RightUpLeg 10.1162 -12.2401 -13.7518
RightLeg 26.6784 -19.738 -10.7877
RightFoot 1.83333 -2.28708 20.0116
RightToes -0.000541893 -0.000659172 -0.000493268
Spine -0.156364 2.97149 0.543205
Spine1 -0.390807 5.64117 2.5889
HEad 25.8184 17.873 -11.673
LeftShoulder1 -3.88251e-019 -0 -3.92111e-022
LeftArm -40.6938 21.5613 -85.7826
LeftForeArm 22.3232 2.17997 2.25767
LeftHand -0.483282 -4.08927 6.19391
RightShoulder 7.45443e-017 -2.42657e-020 1.96277e-018
RightArm -28.8624 -24.0442 65.4533
RightForeArm 22.9011 3.95971 4.13324
RightHand -1.47193 9.87111 -11.5278
LeftUpLeg -8.04199 -1.8193 -5.05164
LeftLeg 6.66042 18.1498 1.48397
LeftFoot 1.48285 -0.743243 6.52799
LeftToes 3.91355e-005 3.11907e-005 -4.10385e-006
394
root -4.48828 38.973 -32.9455 -179.976 -59.7187 176.292
RightUpLeg 6.47713 -9.70254 -14.2504
RightLeg 37.1335 -15.7614 -12.6971
RightFoot 8.88898 -1.20315 7.29441
RightToes -0.000541893 -0.000659172 -0.000493268
Spine 0.119001 2.81083 0.335308
Spine1 0.0851051 5.10769 2.89666
HEad 24.8888 17.4222 -12.4426
LeftShoulder1 -3.88251e-019 -0 -3.92111e-022
LeftArm -39.8944 20.5484 -85.1638
LeftForeArm 21.7681 2.1931 1.99026
LeftHand -0.558897 -4.31987 6.96001
RightShoulder 7.45443e-017 -2.42657e-020 1.96277e-018
RightArm -29.0007 -24.7152 65.5622
RightForeArm 20.4273 4.77099 4.51672
RightHand -1.42379 9.7756 -11.235
LeftUpLeg -7.30365 -2.26013 -6.85805
LeftLeg 9.30503 15.9652 1.62896
LeftFoot -1.21548 -0.652843 7.44631
LeftToes 3.91355e-005 3.11907e-005 -4.10385e-006
395
root -5.41461 38.7691 -32.8372 -179.246 -63.2124 175.027
RightUpLeg 2.59122 -7.37101 -13.9799
RightLeg 45.187 -8.88824 -9.75528
RightFoot 10.1231 -0.0363857 0.560032
RightToes -0.000541893 -0.000659172 -0.000493268
Spine 0.543168 2.42211 0.0583425
Spine1 0.865811 4.13684 2.92485
HEad 23.3966 17.0984 -13.3439
LeftShoulder1 -3.88251e-019 -0 -3.92111e-022
LeftArm -39.2635 17.9476 -83.9822
LeftForeArm 21.6992 2.1859 2.14041
LeftHand -0.66038 -4.16394 8.29562
RightShoulder 7.45443e-017 -2.42657e-020 1.96277e-018
RightArm -28.714 -23.8819 65.9179
RightForeArm 19.633 5.15764 5.03848
RightHand -1.50142 10.1961 -11.519
LeftUpLeg -6.55031 -2.7775 -8.82761
LeftLeg 11.4966 13.5431 2.0095
LeftFoot -3.74972 -0.496374 7.81007
LeftToes 3.91355e-005 3.11907e-005 -4.10385e-006
396
root -6.22557 38.6153 -32.8598 -178.29 -66.7811 173.897
RightUpLeg -1.81229 -5.50847 -12.4983
RightLeg 51.1546 -4.31505 -6.12964
RightFoot 5.38664 -0.0851583 0.855691
RightToes -0.000541893 -0.000659172 -0.000493268
Spine 0.823626 2.06341 -0.341473
Spine1 1.37907 3.26518 2.79622
HEad 23.2068 16.6758 -13.5665
LeftShoulder1 -3.88251e-019 -0 -3.92111e-022
LeftArm -38.4473 14.1407 -82.4548
LeftForeArm 21.8718 2.16788 2.63768
LeftHand -0.711055 -4.09433 8.97046
RightShoulder 7.45443e-017 -2.42657e-020 1.96277e-018
RightArm -28.499 -22.4884 66.9785
RightForeArm 20.2644 5.39211 5.05703
RightHand -1.52802 10.4534 -11.534
LeftUpLeg -5.66049 -3.08488 -10.1176
LeftLeg 12.8224 10.5718 1.93223
LeftFoot -5.64077 -0.347022 7.63693
LeftToes 3.91355e-005 3.11907e-005 -4.10385e-006
397
root -7.0166 38.5273 -32.99 -177.973 -70.5368 173.486
RightUpLeg -6.36449 -4.14157 -10.1214
RightLeg 54.8543 -3.82265 -6.25464
RightFoot 0.703829 -0.0847807 0.783293
RightToes -0.000541893 -0.000659172 -0.000493268
Spine 0.911435 1.71433 -0.613152
Spine1 1.56515 2.53519 2.72234
HEad 24.3371 15.9644 -13.0129
LeftShoulder1 -3.88251e-019 -0 -3.92111e-022
LeftArm -37.4121 10.5021 -81.3783
LeftForeArm 21.5242 2.21969 2.89506
LeftHand -0.707887 -4.23342 8.81092
RightShoulder 7.45443e-017 -2.42657e-020 1.96277e-018
RightArm -28.2113 -21.6175 68.1567
RightForeArm 20.7518 6.33467 5.28439
RightHand -1.42559 10.3853 -10.8361
LeftUpLeg -4.39418 -2.78154 -10.4712
LeftLeg 13.5788 6.95066 1.22682
LeftFoot -7.34901 -0.203071 7.07587
LeftToes 3.91355e-005 3.11907e-005 -4.10385e-006
398
root -7.80628 38.504 -33.1418 -178.386 -74.4713 173.636
RightUpLeg -10.4023 -2.75695 -7.55443
RightLeg 55.5567 -4.98542 -8.16686
RightFoot -2.19362 0.118552 -1.71681
RightToes -0.000541893 -0.000659172 -0.000493268
Spine 1.02645 1.30039 -0.682453
Spine1 1.85784 1.78785 2.73956
HEad 25.1201 14.9333 -12.2158
LeftShoulder1 -3.88251e-019 -0 -3.92111e-022
LeftArm -36.2498 7.8836 -80.963
LeftForeArm 20.6531 2.13146 2.44135
LeftHand -0.704559 -4.25692 8.75101
RightShoulder 7.45443e-017 -2.42657e-020 1.96277e-018
RightArm -27.5333 -21.2021 68.9757
RightForeArm 20.3705 8.12573 6.4012
RightHand -1.3703 10.4949 -10.3679
LeftUpLeg -2.63609 -2.36961 -10.3759
LeftLeg 13.9607 3.15905 0.376608
LeftFoot -8.94339 -0.0849046 6.62032
LeftToes 3.91355e-005 3.11907e-005 -4.10385e-006
399
root -8.5652 38.4778 -33.2891 -178.44 -78.1128 173.548
RightUpLeg -14.1793 -0.782495 -5.46089
RightLeg 52.7817 -5.26446 -7.758
RightFoot -4.57059 0.0715225 -1.7021
RightToes -0.000541893 -0.000659172 -0.000493268
Spine 1.20955 0.857653 -0.710135
Spine1 2.32211 1.09423 2.52435
HEad 24.8312 14.0567 -11.6461
LeftShoulder1 -3.88251e-019 -0 -3.92111e-022
LeftArm -35.1889 6.18929 -80.7756
LeftForeArm 20.1337 -0.678923 1.4554
LeftHand -0.730793 -4.21789 9.10083
RightShoulder 7.45443e-017 -2.42657e-020 1.96277e-018
RightArm -25.8533 -20.3081 69.7402
RightForeArm 19.1957 9.97118 7.54586
RightHand -1.43837 10.92 -10.5911
LeftUpLeg -1.184 -2.09806 -10.2241
LeftLeg 14.5689 -0.400056 -0.37976
LeftFoot -10.2722 -0.000570593 6.70883
LeftToes 3.91355e-005 3.11907e-005 -4.10385e-006
400
root -9.35135 38.4407 -33.4418 -177.82 -81.2794 173.153
RightUpLeg -17.6998 1.46438 -4.0649
RightLeg 46.8237 -4.4898 -5.42797
RightFoot -5.25895 -0.0210187 -0.276167
RightToes -0.000541893 -0.000659172 -0.000493268
Spine 1.28337 0.392575 -0.617177
Spine1 2.57271 0.437948 2.16148
HEad 24.4184 13.6307 -11.4136
LeftShoulder1 -3.88251e-019 -0 -3.92111e-022
LeftArm -34.5994 5.18051 -80.7301
LeftForeArm 20.9799 -4.33393 0.57804
LeftHand -0.809599 -4.40943 9.86182
RightShoulder 7.45443e-017 -2.42657e-020 1.96277e-018
RightArm -24.001 -18.7186 70.3879
RightForeArm 18.4389 11.0316 8.07301
RightHand -1.50842 11.3288 -10.8281
LeftUpLeg -0.165725 -1.78841 -9.89838
LeftLeg 15.2189 -3.66237 -1.20882
LeftFoot -11.6756 0.0898885 6.70852
LeftToes 3.91355e-005 3.11907e-005 -4.10385e-006
401
root -10.1976 38.446 -33.5935 -177.643 -84.122 173.456
RightUpLeg -20.2375 3.74212 -3.2469
RightLeg 37.9575 -3.79683 -3.43422
RightFoot -3.86206 0.0217863 -0.709454
RightToes -0.000541893 -0.000659172 -0.000493268
Spine 1.20244 -0.0482781 -0.249804
Spine1 2.47647 -0.19193 1.96237
HEad 24.763 13.3217 -11.2981
LeftShoulder1 -3.88251e-019 -0 -3.92111e-022
LeftArm -34.4646 4.71706 -80.9422
LeftForeArm 22.7323 -6.97913 -0.140517
LeftHand -0.943866 -4.63147 11.202
RightShoulder 7.45443e-017 -2.42657e-020 1.96277e-018
RightArm -22.7662 -17.0842 70.5807
RightForeArm 18.3339 11.3695 8.35048
RightHand -1.49499 11.4857 -10.6416
LeftUpLeg 1.00228 -1.50714 -9.28998
LeftLeg 15.1991 -6.66094 -2.00627
LeftFoot -12.9564 0.167212 6.30728
LeftToes 3.91355e-005 3.11907e-005 -4.10385e-006
